<?xml version="1.0" encoding="UTF-8"?>
<svg id="Capa_2" data-name="Capa 2" xmlns="http://www.w3.org/2000/svg" viewBox="0 0 934.22 388">
  <defs>
    <style>
      .cls-1 {
        fill: #00cfb5;
      }

      .cls-2 {
        fill: #192a67;
      }
    </style>
  </defs>
  <g id="Capa_1-2" data-name="Capa 1">
    <g>
      <path class="cls-2" d="m168.02,0L0,97v194l168.02,97,87.33-50.42c-5.21-2.17-10.18-4.86-14.84-8.04-4.2-2.6-8.17-5.58-11.87-8.94l-50.91,29.39c-6.01,3.47-13.41,3.47-19.42,0l-120.54-69.59c-6.01-3.47-9.71-9.88-9.71-16.82V124.41c0-6.94,3.7-13.35,9.71-16.82l120.54-69.59c6.01-3.47,13.41-3.47,19.42,0l120.52,69.59c6.01,3.47,9.71,9.88,9.71,16.82v55.63c10.08,2.6,19.6,7.07,28.06,13.21v-96.25L168.02,0Z"/>
      <g>
        <path class="cls-2" d="m354.49,304.81c-6.95,11.37-16.86,20.76-28.75,27.21l30.3,29.46c3.76,3.66,8.86,5.71,14.17,5.71,5.32,0,10.42-2.05,14.19-5.7,3.76-3.66,5.88-8.62,5.88-13.79s-2.11-10.14-5.87-13.79l-29.93-29.09Z"/>
        <path class="cls-2" d="m284.05,193.78c-13.22,0-26.14,3.93-37.13,11.28-10.99,7.36-19.56,17.81-24.61,30.05-5.06,12.24-6.38,25.7-3.8,38.69,2.58,12.99,8.94,24.92,18.29,34.29,9.35,9.36,21.25,15.74,34.22,18.33,12.96,2.58,26.4,1.26,38.61-3.81,12.21-5.07,22.65-13.65,29.99-24.66,7.34-11.01,11.26-23.96,11.26-37.2,0-17.76-7.04-34.79-19.58-47.35-12.53-12.56-29.53-19.61-47.25-19.62Zm0,96.39c-5.81,0-11.49-1.73-16.32-4.96-4.83-3.23-8.59-7.83-10.82-13.21-2.22-5.38-2.81-11.29-1.67-17,1.13-5.71,3.93-10.95,8.04-15.07,4.11-4.12,9.34-6.92,15.04-8.05,5.7-1.14,11.6-.55,16.97,1.68,5.37,2.23,9.95,6,13.18,10.84,3.23,4.84,4.95,10.53,4.95,16.35,0,7.8-3.1,15.29-8.6,20.81-5.51,5.52-12.98,8.62-20.77,8.62h0Z"/>
      </g>
      <path class="cls-2" d="m203.63,251.99c.11.03.23.05.34.08-.15.42-.31.84-.47,1.25.03-.44.08-.89.13-1.33Z"/>
      <path class="cls-1" d="m276.36,115.13l-94.22-54.4c-8.74-5.05-19.52-5.05-28.26,0l-94.22,54.4c-8.74,5.05-14.13,14.38-14.13,24.47v108.8c0,10.09,5.39,19.42,14.13,24.47l94.22,54.4c8.74,5.05,19.52,5.05,28.26,0l35.07-20.25c-2.97-4.45-5.51-9.18-7.57-14.12-4.72,1.87-9.64,3.38-14.79,4.51,3.86-5.29,7.49-10.69,10.87-16.24-.36-1.4-.68-2.81-.96-4.23-1.55-7.82-1.96-15.77-1.26-23.62-6.04,15.77-15.45,28.83-27.63,41.78v-46.86c9.35.39,18.3,1.55,27.76,3.75.51-4.94,1.47-9.84,2.87-14.63-2.96.03-5.72-1.29-8.55-1.49-4.03-.19-8.06-1.18-12.09-1.71-10.58-1.33-10.58-1.26-10.58-12.17v-19.89h39.4c-.11,6.75-.81,13.28-1.91,19.72,6.44-12.21,15.82-22.66,27.34-30.37,2.69-1.8,5.46-3.43,8.32-4.89h-18.42c-1.65-13.35-2.91-26.9-6.67-40.38,10.84-4.57,21.48-8.73,31.66-14.94,10.44,14.48,16.69,29.95,19.43,47.03,3.91-.56,7.87-.85,11.85-.85,1.41,0,2.81.04,4.21.11v-37.93c0-10.09-5.39-19.42-14.13-24.47Zm-72.79,19.87c-9.45,2.85-18.44,3.31-27.83,4.1v-43.36c12.5,11.24,20.69,24.33,27.83,39.26Zm-42.77,79.33c.14,4.82-.2,9.65.07,14.47.2,3.51-.92,4.96-4.56,5.16-8.33.46-16.59,1.25-24.72,3.24-3.44.86-5.56-.2-6.28-3.97-2.18-10.11-3.84-20.23-4.23-31.4h38.93c1.59,4.1.59,8.33.79,12.5Zm-39.72-27.37c.33-12.63,2.31-23.8,5.15-34.9.47-1.92,1.39-2.58,3.57-2.18,9.98,1.98,19.97,3.57,31,3.96v30.01c0,1.66-.46,3.11-2.38,3.11-12.29.07-24.65,0-37.34,0Zm37.41-39.94c0-5.52,4.48-10,10-10s10,4.48,10,10-4.48,10-10,10-10-4.48-10-10Zm10-80c5.52,0,10,4.48,10,10s-4.48,10-10,10-10-4.48-10-10,4.48-10,10-10Zm-9.34,28.92c.53.2,1.06.4,1.59.59,0,13.09,0,26.25-.07,39.33,0,1.85-.59,3.38-2.84,3.04-8.2-1.12-16.53-1.52-25.19-3.96,6.15-15.27,15.34-27.83,26.51-39Zm-16.39-5.36c-10.12,12.37-18.31,25.85-24.86,40.52-9.45-3.1-18.11-6.54-26.97-11.5,14.61-14.94,31.87-24.12,51.83-29.02Zm-62.07,41.05c10.64,4.7,20.42,10.18,31.86,13.75-3.04,13.55-5.48,27.1-6.35,41.25h-45.67c1.78-20.49,8.72-38.4,20.16-55Zm-20.03,70.27h45.21c1.39,10.91,2.38,21.88,4.83,32.65,1.72,7.41,1.65,7.47-5.82,10.25-8.46,3.11-16.46,7.34-24.72,11.57-11.24-16.53-18.05-34.31-19.5-54.47Zm29.55,66.17c8.72-5.16,17.58-8.53,26.9-12.3,6.22,15.07,14.48,28.69,24.06,41.71-19.83-4.69-36.55-14.28-50.96-29.41Zm41.64-15.74c9.59-2.64,18.77-3.57,28.56-4.09v47.06c-13.09-12.89-21.95-26.84-28.56-42.97Zm46.64,62.69c0,5.52-4.48,10-10,10s-10-4.48-10-10,4.48-10,10-10,10,4.48,10,10Zm0-75c0,5.52-4.48,10-10,10s-10-4.48-10-10,4.48-10,10-10,10,4.48,10,10Zm-10-36c-5.52,0-10-4.48-10-10s4.48-10,10-10,10,4.48,10,10-4.48,10-10,10Zm9.37-16.99c-2.32-.07-2.58-1.72-2.58-3.51,0-8.72.07-17.45,0-26.17-.07-3.04,1.39-3.7,4.03-3.77,8.4-.27,16.59-1.39,24.79-3.04,2.45-.46,4.89-.79,5.69,2.51,2.77,10.91,4.75,21.95,4.95,33.98h-36.88Zm43.23-56.52c-1.92.73-3.24.26-4.1-1.59-6.28-13.81-14.41-26.57-24.26-38.4,20.29,4.36,37.48,13.88,52.35,29.02-7.93,4.82-15.93,8-23.99,10.97Z"/>
      <g>
        <path class="cls-2" d="m400.51,186.92c0,20.88,11.64,27.94,28.31,27.94h12.5v-20.88h-8.77c-5.46,0-7.47-2.02-7.47-6.77v-32.26h16.1v-20.45h-16.1v-19.58h-17.39c-3.97,0-7.19,3.22-7.19,7.2v12.38h-9.77v20.45h9.77v31.97Z"/>
        <path class="cls-2" d="m455.01,214.85h24.58v-80.36h-17.39c-3.97,0-7.19,3.22-7.19,7.2v73.15Z"/>
        <path class="cls-2" d="m492.51,174.53c0,25.35,15.67,41.47,35.36,41.47,11.79,0,20.26-5.33,24.72-12.67v11.52h24.58v-106.56h-17.39c-3.97,0-7.19,3.22-7.19,7.2v30.1c-4.89-7.34-14.08-12.24-24.72-12.24-19.69,0-35.36,15.84-35.36,41.19Zm60.08.14c0,12.82-8.19,19.87-17.53,19.87s-17.53-7.2-17.53-20.02,8.34-19.73,17.53-19.73,17.53,7.06,17.53,19.87Z"/>
        <path class="cls-2" d="m594.94,214.85h24.58v-80.36h-17.39c-3.97,0-7.19,3.22-7.19,7.2v73.15Z"/>
        <path class="cls-2" d="m692.66,214.85h24.43v-46.95c0-21.6-12.36-34.27-30.9-34.27-10.78,0-19.4,4.75-24.29,11.52v-10.66h-17.39c-3.97,0-7.19,3.22-7.19,7.2v73.15h24.58v-43.63c0-10.94,6.04-16.99,15.38-16.99s15.38,6.05,15.38,16.99v43.63Z"/>
        <path class="cls-2" d="m729.29,174.53c0,25.35,15.67,41.47,35.36,41.47,11.79,0,20.26-5.62,24.72-12.67v11.38c0,13.54-7.33,18.43-16.67,18.43-8.48,0-14.52-3.89-16.1-9.94h-24.29c2.16,19.15,17.68,31.25,41.54,31.25,27.74,0,40.1-18.29,40.1-39.75v-80.21h-17.39c-3.97,0-7.19,3.22-7.19,7.2v4.18c-4.31-7.2-12.93-12.53-24.72-12.53-19.69,0-35.36,15.84-35.36,41.19Zm60.08.14c0,12.82-8.19,19.87-17.53,19.87s-17.53-7.2-17.53-20.02,8.34-19.73,17.53-19.73,17.53,7.06,17.53,19.87Z"/>
        <path class="cls-2" d="m911.7,200.45c-4.37,7.16-10.61,13.06-18.08,17.11l19.06,18.53c2.37,2.3,5.57,3.59,8.92,3.59,3.34,0,6.56-1.29,8.92-3.59,2.37-2.3,3.7-5.42,3.7-8.68s-1.33-6.38-3.69-8.68l-18.83-18.3Z"/>
        <path class="cls-2" d="m867.39,130.61c-8.31,0-16.44,2.47-23.36,7.1-6.91,4.63-12.3,11.21-15.48,18.9-3.18,7.7-4.02,16.17-2.39,24.34,1.62,8.17,5.63,15.68,11.5,21.57,5.88,5.89,13.37,9.9,21.52,11.53,8.15,1.63,16.61.79,24.29-2.4,7.68-3.19,14.25-8.59,18.87-15.51,4.62-6.93,7.09-15.07,7.09-23.4,0-11.17-4.43-21.88-12.31-29.78-7.88-7.9-18.58-12.34-29.72-12.34Zm0,60.63c-3.65,0-7.23-1.09-10.27-3.12-3.04-2.03-5.41-4.93-6.81-8.31-1.4-3.38-1.76-7.11-1.05-10.7.71-3.59,2.47-6.89,5.06-9.48,2.58-2.59,5.88-4.35,9.46-5.07,3.58-.71,7.3-.35,10.68,1.05,3.38,1.4,6.26,3.77,8.29,6.82,2.03,3.04,3.11,6.62,3.11,10.29,0,4.91-1.95,9.62-5.41,13.09-3.46,3.47-8.16,5.42-13.06,5.42h0Z"/>
        <path class="cls-2" d="m620.9,112.97c0,7.36-5.95,13.32-13.29,13.32s-13.29-5.96-13.29-13.32,5.95-13.32,13.29-13.32,13.29,5.96,13.29,13.32Z"/>
        <path class="cls-2" d="m482.57,112.97c0,7.36-5.95,13.32-13.29,13.32s-13.29-5.96-13.29-13.32,5.95-13.32,13.29-13.32,13.29,5.96,13.29,13.32Z"/>
      </g>
      <g>
        <path class="cls-1" d="m411.01,268.66c-3.04,0-5.96-.41-8.76-1.23s-5.05-1.89-6.75-3.21l2.98-6.69c1.59,1.17,3.51,2.13,5.75,2.88,2.24.75,4.5,1.12,6.78,1.12,1.74,0,3.14-.18,4.2-.55,1.07-.36,1.85-.85,2.36-1.45.51-.6.76-1.31.76-2.11,0-1.02-.4-1.84-1.19-2.44-.8-.6-1.85-1.1-3.17-1.48-1.32-.38-2.76-.75-4.31-1.1-1.56-.35-3.12-.77-4.69-1.26s-3.02-1.15-4.34-1.97c-1.32-.82-2.37-1.9-3.15-3.24-.78-1.33-1.17-3.01-1.17-5.02,0-2.19.58-4.2,1.74-6.01s2.92-3.25,5.29-4.33c2.37-1.08,5.34-1.62,8.92-1.62,2.39,0,4.75.29,7.08.88,2.33.59,4.37,1.43,6.1,2.52l-2.77,6.69c-1.7-.99-3.45-1.73-5.26-2.22-1.81-.49-3.55-.74-5.21-.74s-3.13.19-4.18.58c-1.05.38-1.82.91-2.31,1.56-.49.66-.73,1.39-.73,2.19,0,1.02.4,1.85,1.19,2.47.8.62,1.84,1.11,3.15,1.45,1.3.35,2.75.69,4.34,1.04,1.59.35,3.16.78,4.72,1.29,1.55.51,2.98,1.16,4.29,1.95,1.3.79,2.36,1.85,3.17,3.18.81,1.33,1.22,2.99,1.22,4.96,0,2.16-.59,4.13-1.76,5.92-1.18,1.79-2.96,3.24-5.34,4.33-2.39,1.1-5.37,1.65-8.95,1.65Z"/>
        <path class="cls-1" d="m451.53,268.66c-3,0-5.77-.49-8.3-1.48-2.53-.99-4.74-2.38-6.62-4.17-1.88-1.79-3.34-3.89-4.37-6.31-1.03-2.41-1.55-5.05-1.55-7.9s.52-5.53,1.55-7.92c1.03-2.39,2.49-4.49,4.37-6.28,1.88-1.79,4.08-3.18,6.59-4.17,2.51-.99,5.27-1.48,8.27-1.48s5.76.48,8.27,1.45c2.51.97,4.71,2.35,6.59,4.14,1.88,1.79,3.34,3.89,4.37,6.31,1.03,2.41,1.55,5.06,1.55,7.95s-.52,5.49-1.55,7.92c-1.03,2.43-2.49,4.54-4.37,6.33-1.88,1.79-4.08,3.17-6.59,4.14s-5.25,1.45-8.22,1.45Zm-.05-7.51c1.7,0,3.26-.3,4.69-.9,1.43-.6,2.69-1.46,3.77-2.58,1.09-1.11,1.93-2.41,2.52-3.89.6-1.48.9-3.13.9-4.96s-.3-3.48-.9-4.96c-.6-1.48-1.44-2.78-2.52-3.89-1.08-1.12-2.34-1.97-3.77-2.58-1.43-.6-2.99-.9-4.69-.9s-3.27.3-4.72.9c-1.45.6-2.7,1.46-3.77,2.58-1.07,1.12-1.9,2.41-2.5,3.89-.6,1.48-.9,3.14-.9,4.96s.3,3.48.9,4.96c.6,1.48,1.43,2.78,2.5,3.89,1.07,1.12,2.32,1.97,3.77,2.58,1.45.6,3.02.9,4.72.9Z"/>
        <polygon class="cls-1" points="487.71 236.75 487.71 246.89 505.24 246.89 505.24 254.02 487.71 254.02 487.71 268 478.87 268 478.87 229.62 507.57 229.62 507.57 236.75 487.71 236.75"/>
        <path class="cls-1" d="m521.67,268v-31.15h-12.15v-7.24h33.09v7.24h-12.15v31.15h-8.79Z"/>
        <polygon class="cls-1" points="604.02 229.62 591.54 268 582.22 268 573.8 241.97 565.18 268 555.79 268 543.31 229.62 552.43 229.62 561 256.6 569.96 229.62 578.09 229.62 586.77 256.81 595.62 229.62 604.02 229.62"/>
        <path class="cls-1" d="m628.22,229.62h-8.68l-16.87,38.38h9.01l3.38-8.22h17.59l3.38,8.22h9.22l-17.03-38.38Zm-10.38,23.41l6.02-14.63,6.02,14.63h-12.04Z"/>
        <path class="cls-1" d="m674.38,255.66s.04-.01.06-.02c2.46-1.09,4.35-2.66,5.7-4.72,1.33-2.07,2.01-4.54,2.01-7.43s-.67-5.32-2.01-7.4c-1.34-2.09-3.24-3.68-5.7-4.8-2.46-1.12-5.39-1.67-8.79-1.67h-16.44v38.38h8.85v-10.75h7.59c.13,0,.26,0,.38-.01l7.37,10.76h9.44l-8.47-12.34Zm-16.32-1.26l-.49-.52.49-.47v.98Zm0-17.55h7.1c2.68,0,4.7.58,6.08,1.73,1.37,1.15,2.06,2.79,2.06,4.91s-.68,3.76-2.06,4.94c-1.37,1.17-3.4,1.75-6.08,1.75h-7.1v-13.33Z"/>
        <polygon class="cls-1" points="718.49 260.87 718.49 268 689.09 268 689.09 229.62 717.79 229.62 717.79 236.75 697.83 236.75 697.83 245.02 715.45 245.02 715.45 251.99 697.83 251.99 697.83 260.87 718.49 260.87"/>
      </g>
    </g>
  </g>
</svg>